<svg xmlns="http://www.w3.org/2000/svg" xmlns:xlink="http://www.w3.org/1999/xlink" viewBox="0 0 273.11 238.65"><defs><linearGradient id="Naamloos_verloop_92" x1="71.59" y1="50.03" x2="190.62" y2="50.03" gradientUnits="userSpaceOnUse"><stop offset="0" stop-color="#dedce4"/><stop offset="0.28" stop-color="#fff"/><stop offset="0.68" stop-color="#fff"/><stop offset="1" stop-color="#dedce4"/></linearGradient><linearGradient id="Naamloos_verloop_92-2" x1="56" y1="179.97" x2="230.01" y2="179.97" xlink:href="#Naamloos_verloop_92"/><linearGradient id="Naamloos_verloop_92-3" x1="91.42" y1="101.86" x2="273.11" y2="101.86" xlink:href="#Naamloos_verloop_92"/><linearGradient id="Naamloos_verloop_92-4" x1="88.69" y1="184.63" x2="270.38" y2="184.63" xlink:href="#Naamloos_verloop_92"/><linearGradient id="linear-gradient" x1="12980.74" y1="178.27" x2="12977.74" y2="176.49" gradientTransform="translate(-12828.64)" gradientUnits="userSpaceOnUse"><stop offset="0" stop-color="#99cd70"/><stop offset="0.03" stop-color="#9cce74"/><stop offset="0.24" stop-color="#aed68c"/><stop offset="0.46" stop-color="#badc9d"/><stop offset="0.7" stop-color="#c2dfa7"/><stop offset="1" stop-color="#c4e0aa"/></linearGradient></defs><g id="Layer_2" data-name="Layer 2"><g id="Laag_2" data-name="Laag 2"><polygon points="213.87 26.37 212.89 25.85 184.14 6.02 174.56 1.11 164.86 16.86 164.86 53.01 193.99 73.1 193.99 73.13 194 73.12 194.02 73.13 194.02 73.11 213.87 62.5 213.87 26.37" style="fill:none;stroke:#fff;stroke-linecap:round;stroke-linejoin:round;stroke-width:2.21865655443397px"/><polygon points="213.87 62.5 193.99 73.13 193.99 36.99 203.78 21.03 213.87 26.37 213.87 62.5" style="fill:#c5792b"/><polygon points="164.86 16.86 194.02 36.98 194.02 73.13 164.86 53.01 164.86 16.86" style="fill:#fcbb81"/><polygon points="164.86 16.86 194.02 36.98 203.73 21.23 174.56 1.11 164.86 16.86" style="fill:#feddbe"/><polygon points="184.14 6.02 213.31 26.14 203.73 21.23 174.56 1.11 184.14 6.02" style="fill:#c7986c"/><polygon points="167.97 26.32 167.97 36.8 173.58 40.67 173.58 30.19 167.97 26.32" style="fill:#dedce4"/><polygon points="176.22 31.98 176.22 42.45 181.83 46.32 181.83 35.84 176.22 31.98" style="fill:#dedce4"/><polygon points="184.47 37.63 184.47 48.11 190.08 51.98 190.08 41.5 184.47 37.63" style="fill:#dedce4"/><polygon points="190.62 81.18 87.47 10.03 71.59 20.16 175.52 90.03 190.62 81.18" style="fill:url(#Naamloos_verloop_92)"/><polygon points="102.72 7 92.56 9.08 65.09 24.38 63.77 24.59 63.77 65.23 86.95 81.38 115.74 65.35 115.74 24.71 102.72 7" style="fill:none;stroke:#fff;stroke-linecap:round;stroke-linejoin:round;stroke-width:2.75394911740648px"/><polygon points="102.72 7 92.56 9.08 65.09 24.38 63.77 24.59 63.77 65.23 86.95 81.38 115.74 65.35 115.74 24.71 102.72 7" style="fill:none;stroke:#fff;stroke-linecap:round;stroke-linejoin:round;stroke-width:2.75394911740648px"/><polygon points="115.74 65.35 86.95 81.38 86.95 40.74 115.74 24.71 115.74 65.35" style="fill:#975549"/><polygon points="63.77 65.23 86.95 81.38 86.95 40.74 74.98 22.77 63.77 24.59 63.77 65.23" style="fill:#cdaaa0"/><polygon points="102.72 7 73.93 23.03 86.95 40.74 115.74 24.71 102.72 7" style="fill:#dc8731"/><polygon points="102.72 7 73.93 23.03 63.77 25.11 92.56 9.08 102.72 7" style="fill:#f7b529"/><polygon points="230.01 225.5 79.22 121.5 56 136.3 207.94 238.45 230.01 225.5" style="fill:url(#Naamloos_verloop_92-2)"/><polygon points="91.42 142.94 249.89 47.83 273.11 62.64 113.49 155.88 91.42 142.94" style="fill:url(#Naamloos_verloop_92-3)"/><polygon points="88.69 225.71 247.16 130.6 270.38 145.41 110.76 238.66 88.69 225.71" style="fill:url(#Naamloos_verloop_92-4)"/><path d="M137.61,74.22V63.16h-7.39A7.24,7.24,0,0,1,123,55.92V52.1a14.78,14.78,0,0,1,1.19-22.68A16.37,16.37,0,0,1,148.8,15.65,13.76,13.76,0,0,1,165.22,29.2c0,.16,0,.32,0,.48a15.09,15.09,0,0,1,0,25.12v1.12A7.24,7.24,0,0,1,158,63.16H150.2V74.22Z" style="fill:#dedce4"/><path d="M169.79,42.24A12.87,12.87,0,0,0,163,30.83a12.5,12.5,0,0,0,.13-1.63,11.66,11.66,0,0,0-11.66-11.66,11.86,11.86,0,0,0-3,.4,14.22,14.22,0,0,0-22.1,11.85c0,.25,0,.49,0,.74a12.63,12.63,0,0,0-1.23,20.59v4.8A5.1,5.1,0,0,0,130.22,61h9.54V72.08h8.3V61H158a5.1,5.1,0,0,0,5.09-5.09V53.58A12.86,12.86,0,0,0,169.79,42.24Z" style="fill:#3f9c46"/><path d="M138.49,39.66l-13.57,5.46-48,25.66L73.5,72v34.15l28.78,20L153.7,98.69V64.53ZM87.07,67.15l.06.1L84.86,68Z" style="fill:none;stroke:#fff;stroke-linecap:round;stroke-linejoin:round;stroke-width:2.75394911740648px"/><polygon points="153.7 98.69 102.28 126.17 102.28 92.02 153.7 64.53 153.7 98.69" style="fill:#aa90c2"/><polygon points="73.5 106.12 102.28 126.17 102.28 92.02 88.37 66.83 73.5 71.97 73.5 106.12" style="fill:#d4c9e2"/><polygon points="138.49 39.66 87.07 67.15 102.28 92.02 153.7 64.53 138.49 39.66" style="fill:#7d5a99"/><polygon points="138.49 39.66 87.07 67.15 73.5 72.61 124.92 45.12 138.49 39.66" style="fill:#9b7db6"/><polygon points="79.97 99.86 78.41 99.03 32.3 67.23 16.94 59.35 1.38 84.61 1.38 136.97 48.09 169.19 48.09 169.22 48.12 169.21 48.15 169.23 48.15 169.19 79.97 152.18 79.97 99.86" style="fill:none;stroke:#fff;stroke-linecap:round;stroke-linejoin:round;stroke-width:2.75394911740648px"/><polygon points="79.97 152.18 48.09 169.22 48.09 116.9 63.79 91.3 79.97 99.86 79.97 152.18" style="fill:#785d90"/><polygon points="1.38 84.61 48.15 116.87 48.15 169.23 1.38 136.97 1.38 84.61" style="fill:#e2dbec"/><polygon points="1.38 84.61 48.15 116.87 63.71 91.61 16.94 59.35 1.38 84.61" style="fill:#9b7db6"/><polygon points="32.3 67.23 79.07 99.49 63.71 91.61 16.94 59.35 32.3 67.23" style="fill:#694a81"/><polygon points="132.6 161.83 101.36 178.53 132.46 161.79 85.69 129.53 54.01 146.59 54.01 176.83 100.72 209.04 100.72 209.08 100.75 209.07 100.78 209.09 100.78 209.05 132.6 192.04 132.6 161.83" style="fill:none;stroke:#fff;stroke-linecap:round;stroke-linejoin:round;stroke-width:2.75394911740648px"/><polygon points="132.6 192.04 100.72 209.08 100.72 178.88 132.6 161.83 132.6 192.04" style="fill:#dc8731"/><polygon points="54.01 146.59 100.78 178.85 100.78 209.09 54.01 176.83 54.01 146.59" style="fill:#f1e1cf"/><polygon points="54.01 146.59 100.78 178.85 132.46 161.79 85.69 129.53 54.01 146.59" style="fill:#e5c29e"/><polygon points="62.91 147.08 85.39 134.97 123.57 161.3 101.08 173.41 62.91 147.08" style="fill:#cdaf8f"/><path d="M54.82,221.15V210.09H47.43a7.25,7.25,0,0,1-7.24-7.24V199a14.78,14.78,0,0,1,1.19-22.68A16.37,16.37,0,0,1,66,162.58a13.76,13.76,0,0,1,16.42,13.55c0,.15,0,.31,0,.48a15.09,15.09,0,0,1,0,25.12v1.12a7.25,7.25,0,0,1-7.24,7.24H67.41v11.06Z" style="fill:#dedce4"/><path d="M87,189.17a12.86,12.86,0,0,0-6.85-11.41,11,11,0,0,0,.13-1.63,11.66,11.66,0,0,0-11.66-11.66,11.35,11.35,0,0,0-3,.4,14.22,14.22,0,0,0-22.1,11.85c0,.25,0,.49,0,.74A12.62,12.62,0,0,0,42.34,198v4.81a5.1,5.1,0,0,0,5.09,5.09H57V219h8.3V207.94h9.93a5.1,5.1,0,0,0,5.09-5.09v-2.34A12.85,12.85,0,0,0,87,189.17Z" style="fill:#3f9c46"/><polygon points="10.64 97.95 10.64 110.96 17.6 115.76 17.6 102.76 10.64 97.95" style="fill:#9574b1"/><polygon points="20.88 104.97 20.88 117.98 27.85 122.78 27.85 109.78 20.88 104.97" style="fill:#9574b1"/><polygon points="31.13 112 31.13 125 38.09 129.8 38.09 116.8 31.13 112" style="fill:#9574b1"/><polygon points="10.64 120.39 10.64 133.39 17.6 138.2 17.6 125.19 10.64 120.39" style="fill:#9574b1"/><polygon points="20.88 127.41 20.88 140.41 27.85 145.22 27.85 132.22 20.88 127.41" style="fill:#9574b1"/><polygon points="31.13 134.43 31.13 147.44 38.09 152.24 38.09 139.24 31.13 134.43" style="fill:#9574b1"/><polygon points="144.88 75.52 144.88 88.24 136.78 92.69 136.78 79.96 144.88 75.52" style="fill:#82699a"/><polygon points="132.96 82.01 132.96 94.73 124.85 99.17 124.85 86.45 132.96 82.01" style="fill:#82699a"/><polygon points="121.04 88.5 121.04 101.22 112.93 105.67 112.93 92.94 121.04 88.5" style="fill:#82699a"/><polygon points="109.41 34.89 109.41 45.95 102.36 49.81 102.36 38.75 109.41 34.89" style="fill:#fff"/><polygon points="99.05 40.53 99.05 51.59 92 55.45 92 44.39 99.05 40.53" style="fill:#fff"/><polygon points="125.48 171.5 125.48 182.43 118.51 186.25 118.51 175.31 125.48 171.5" style="fill:#fff"/><polygon points="202.27 63.44 188.36 66.3 133.57 95.59 131.65 95.9 131.65 151.54 163.39 173.65 220.1 143.33 220.1 87.7 202.27 63.44" style="fill:none;stroke:#fff;stroke-linecap:round;stroke-linejoin:round;stroke-width:4.58991519567746px"/><polygon points="220.1 143.33 163.39 173.65 163.39 118.01 220.1 87.7 220.1 143.33" style="fill:#c5792b"/><polygon points="131.65 151.54 163.39 173.65 163.39 118.01 146.99 93.4 131.65 95.9 131.65 151.54" style="fill:#eacfb4"/><polygon points="202.27 63.44 145.56 93.76 163.39 118.01 220.1 87.7 202.27 63.44" style="fill:#f99f1c"/><polygon points="202.27 63.44 145.56 93.76 131.65 96.61 188.36 66.3 202.27 63.44" style="fill:#fdbc4d"/><polygon points="212.06 95.85 212.06 111.58 202.04 117.06 202.04 101.34 212.06 95.85" style="fill:#fff"/><polygon points="197.33 103.87 197.33 119.59 187.31 125.08 187.31 109.36 197.33 103.87" style="fill:#fff"/><polygon points="182.59 111.89 182.59 127.61 172.57 133.1 172.57 117.38 182.59 111.89" style="fill:#fff"/><polygon points="212.06 122.98 212.06 138.7 202.04 144.19 202.04 128.47 212.06 122.98" style="fill:#fff"/><polygon points="197.33 131 197.33 146.72 187.31 152.21 187.31 136.49 197.33 131" style="fill:#fff"/><polygon points="182.59 139.02 182.59 154.74 172.57 160.23 172.57 144.51 182.59 139.02" style="fill:#fff"/><path d="M202.82,197.63V184.56H193.7a8.16,8.16,0,0,1-8.15-8.15v-4.69A17.06,17.06,0,0,1,187,145.3a19,19,0,0,1,19-18.72,18.78,18.78,0,0,1,9.68,2.67,15.56,15.56,0,0,1,3.16-.33,15.94,15.94,0,0,1,15.92,15.92c0,.25,0,.51,0,.77a17.43,17.43,0,0,1,0,29.25v1.55a8.17,8.17,0,0,1-8.16,8.15h-9.58v13.07Z" style="fill:#dedce4"/><path d="M240.45,160.24a15.18,15.18,0,0,0-8.09-13.47,13.71,13.71,0,0,0-17.16-15.23,16.8,16.8,0,0,0-26.1,14c0,.29,0,.58,0,.87a14.91,14.91,0,0,0-1.44,24.32v5.68a6,6,0,0,0,6,6H205v13.07h9.8V182.42H226.5a6,6,0,0,0,6-6v-2.77A15.2,15.2,0,0,0,240.45,160.24Z" style="fill:#3f9c46"/><path d="M152.78,169.76a4.15,4.15,0,1,0-2.18-3.64A4.15,4.15,0,0,0,152.78,169.76Z" style="fill:none;stroke:#fff;stroke-linecap:round;stroke-linejoin:round;stroke-width:5.36547303199768px"/><path d="M158.33,197.79c-.4-1.07-2.1-4.45-3-6.27a3.65,3.65,0,0,0,1.25-1.88,14.25,14.25,0,0,0,0-3.87,56.54,56.54,0,0,1,.07-10.9,4.51,4.51,0,0,0-4.41-4.8,5.15,5.15,0,0,0-2.49.5,1.48,1.48,0,0,0-.84-.1c-1.81.3-3.91.68-5.47,1.05a9.46,9.46,0,0,0-2.07.66c-.8.46-1.9,1.09,0,8.82a1.35,1.35,0,0,0,.16.41,1.57,1.57,0,0,0,2.88-1.15,35.16,35.16,0,0,1-1-5.52c.42-.11,1-.24,1.68-.38s1.51-.3,2.34-.45a1,1,0,0,0,0,.18c-.15,3.44.09,5.68-.12,8.46,0,.46-.11,1.06-.2,1.68-.21,1.4-.5,2.94-.56,3.23a4.53,4.53,0,0,0,.51,3.38c-.15.47-.27.86-.33,1.11-.33.74-2.35,3.9-4.09,6.47a1.87,1.87,0,0,0,1.55,2.93,1.91,1.91,0,0,0,1.57-.82c3.65-5.41,4.38-6.9,4.56-7.46a4.38,4.38,0,0,0,.71.07h0c1.34,2.25,3.45,5.22,3.74,6,.52,1.39,3.58,7.52,3.92,8.21a1.88,1.88,0,0,0,1.69,1,1.78,1.78,0,0,0,.83-.2,1.89,1.89,0,0,0,.85-2.52C160.82,203.09,158.67,198.7,158.33,197.79Z" style="fill:none;stroke:#fff;stroke-linecap:round;stroke-linejoin:round;stroke-width:5.36547303199768px"/><path d="M160.42,208.36a1.88,1.88,0,0,1-1.69-1c-.34-.69-3.4-6.82-3.92-8.21-.34-.9-3.25-4.92-4.4-7.14-.47-.93.86-1.91,1.78-2.38a1.89,1.89,0,0,1,2.54.81c.31.61,3.07,6,3.6,7.39.34.91,2.49,5.3,3.77,7.85a1.89,1.89,0,0,1-.85,2.52A1.78,1.78,0,0,1,160.42,208.36Z" style="fill:#5d9d36"/><path d="M144.19,201.35a1.87,1.87,0,0,1-1.55-2.93c1.74-2.57,3.76-5.73,4.09-6.47.27-1.11,1.63-5,2.22-6.65a1.88,1.88,0,1,1,3.54,1.25c-.94,2.69-2,5.76-2.1,6.27s-.24,1.21-4.63,7.71A1.91,1.91,0,0,1,144.19,201.35Z" style="fill:#569433"/><path d="M156.64,174.87a4.51,4.51,0,0,0-4.41-4.8,4.29,4.29,0,0,0-4.8,4c-.15,3.44.09,5.68-.12,8.46,0,.46-.11,1.06-.2,1.68a48,48,0,0,1,9.46,1.54A56.54,56.54,0,0,1,156.64,174.87Z" style="fill:url(#linear-gradient)"/><path d="M147.11,184.23c-.21,1.4-.5,2.94-.56,3.23A4.61,4.61,0,0,0,150,193a4.41,4.41,0,0,0,1.07.13c2.09,0,5-1.38,5.52-3.5a14.25,14.25,0,0,0,0-3.87A48,48,0,0,0,147.11,184.23Z" style="fill:#5d9d36"/><path d="M145.12,174.36c1.27-.26,2.86-.56,4.3-.8a1.57,1.57,0,1,0-.52-3.09c-1.81.3-3.91.68-5.47,1.05A16.87,16.87,0,0,1,145.12,174.36Z" style="fill:#9bce74"/><path d="M144.4,180.26a35.16,35.16,0,0,1-1-5.52c.42-.11,1-.24,1.68-.38a16.87,16.87,0,0,0-1.69-2.84,9.46,9.46,0,0,0-2.07.66c-.8.46-1.9,1.09,0,8.82a1.35,1.35,0,0,0,.16.41,1.57,1.57,0,0,0,2.88-1.15Z" style="fill:#df8fbc"/><path d="M158.17,163.85a4.15,4.15,0,1,0-5.49,5.88C154.52,167.79,155.46,164.82,158.17,163.85Z" style="fill:#8b702b"/><path d="M152.68,169.73a4.11,4.11,0,0,0,2,.53,4.15,4.15,0,0,0,3.5-6.41C155.46,164.82,154.52,167.79,152.68,169.73Z" style="fill:#df8fbc"/></g></g></svg>