<svg xmlns="http://www.w3.org/2000/svg" xmlns:xlink="http://www.w3.org/1999/xlink" viewBox="0 0 338.49 229.21"><defs><linearGradient id="Naamloos_verloop_130" x1="86.44" y1="209.29" x2="286.91" y2="209.29" gradientTransform="translate(371.86 418.58) rotate(180)" gradientUnits="userSpaceOnUse"><stop offset="0" stop-color="#e7eff2"/><stop offset="0.34" stop-color="#cad2d6"/><stop offset="0.81" stop-color="#ced6d9"/><stop offset="1" stop-color="#e7eff2"/></linearGradient><linearGradient id="Naamloos_verloop_122" x1="303.03" y1="123.88" x2="257.1" y2="123.88" gradientUnits="userSpaceOnUse"><stop offset="0" stop-color="#e7eff2"/><stop offset="1" stop-color="#cad2d6"/></linearGradient><linearGradient id="Naamloos_verloop_122-2" x1="549.5" y1="172.44" x2="490.89" y2="172.44" gradientTransform="matrix(1, 0, 0, -1, -484.29, 344.88)" xlink:href="#Naamloos_verloop_122"/><linearGradient id="linear-gradient" x1="39.88" y1="61.03" x2="40.63" y2="64.08" gradientTransform="matrix(1.33, -0.11, 0.11, 1.28, 20.6, 116.19)" gradientUnits="userSpaceOnUse"><stop offset="0" stop-color="#00b7f1"/><stop offset="1" stop-color="#78d2f7"/></linearGradient><linearGradient id="linear-gradient-2" x1="283.41" y1="211.99" x2="290.56" y2="211.99" gradientTransform="matrix(-1, 0, 0, 1, 555.62, 0)" xlink:href="#linear-gradient"/><linearGradient id="linear-gradient-3" x1="279.23" y1="203.51" x2="288.47" y2="203.51" gradientTransform="matrix(-1, 0, 0, 1, 555.62, 0)" xlink:href="#linear-gradient"/><linearGradient id="linear-gradient-4" x1="279.74" y1="193.78" x2="288.58" y2="193.78" gradientTransform="matrix(-1, 0, 0, 1, 555.62, 0)" gradientUnits="userSpaceOnUse"><stop offset="0" stop-color="#7dcef1"/><stop offset="1" stop-color="#65a6c3"/></linearGradient></defs><g id="Layer_2" data-name="Layer 2"><g id="Laag_2" data-name="Laag 2"><rect x="96.72" y="198.97" width="178.42" height="20.65" transform="translate(371.86 418.58) rotate(-180)" style="fill:url(#Naamloos_verloop_130)"/><rect x="173.71" y="203.49" width="22.25" height="25.72" style="fill:#e7eff2"/><rect x="251.93" y="113.45" width="86.56" height="20.86" style="fill:url(#Naamloos_verloop_122)"/><rect y="162.12" width="110.44" height="20.65" transform="translate(110.44 344.88) rotate(-180)" style="fill:url(#Naamloos_verloop_122-2)"/><polygon points="148.15 109.89 148.15 79.2 167.45 79.2 167.45 40.38 216.33 21.2 216.33 34.47 250.12 21.2 250.12 34.47 283.92 21.2 283.92 79.2 299.42 79.2 299.42 109.89 148.15 109.89" style="fill:#fff"/><polygon points="275.62 83.99 275.62 28.63 241.82 41.89 241.82 28.63 208.03 41.89 208.03 28.63 170.47 43.37 170.47 83.99 151.17 83.99 151.17 113.9 291.12 113.9 291.12 83.99 275.62 83.99" style="fill:#5a8d5e"/><polygon points="170.47 43.37 208.03 28.63 208.03 85.83 170.47 85.83 170.47 43.37" style="fill:#73a374"/><rect x="177.81" y="54.44" width="9.14" height="11.08" style="fill:#a6c0a1"/><rect x="191.92" y="54.44" width="9.14" height="11.08" style="fill:#a6c0a1"/><rect x="177.81" y="70.32" width="9.14" height="11.08" style="fill:#a6c0a1"/><rect x="191.92" y="70.32" width="9.14" height="11.08" style="fill:#a6c0a1"/><polygon points="204.27 43.37 241.82 28.63 241.82 85.83 204.27 85.83 204.27 43.37" style="fill:#73a374"/><rect x="211.6" y="54.44" width="9.14" height="11.08" style="fill:#a6c0a1"/><rect x="225.72" y="54.44" width="9.14" height="11.08" style="fill:#a6c0a1"/><rect x="211.6" y="70.32" width="9.14" height="11.08" style="fill:#a6c0a1"/><rect x="225.72" y="70.32" width="9.14" height="11.08" style="fill:#a6c0a1"/><polygon points="238.06 43.37 275.62 28.63 275.62 85.83 238.06 85.83 238.06 43.37" style="fill:#5c9d95"/><rect x="245.4" y="54.44" width="9.14" height="11.08" style="fill:#a6c0a1"/><rect x="259.51" y="54.44" width="9.14" height="11.08" style="fill:#a6c0a1"/><rect x="245.4" y="70.32" width="9.14" height="11.08" style="fill:#a6c0a1"/><rect x="259.51" y="70.32" width="9.14" height="11.08" style="fill:#a6c0a1"/><rect x="151.17" y="83.99" width="139.95" height="29.91" style="fill:#5c9d95"/><rect x="158.33" y="88.42" width="5.57" height="18.46" style="fill:#a6c0a1"/><rect x="167.47" y="88.42" width="5.57" height="18.46" style="fill:#a6c0a1"/><rect x="176.62" y="88.42" width="5.57" height="18.46" style="fill:#a6c0a1"/><rect x="185.76" y="88.42" width="5.57" height="18.46" style="fill:#a6c0a1"/><rect x="194.9" y="88.42" width="5.57" height="18.46" style="fill:#a6c0a1"/><rect x="204.05" y="88.42" width="5.57" height="18.46" style="fill:#a6c0a1"/><rect x="213.19" y="88.42" width="5.57" height="18.46" style="fill:#a6c0a1"/><rect x="222.34" y="88.42" width="5.57" height="18.46" style="fill:#a6c0a1"/><rect x="231.48" y="88.42" width="5.57" height="18.46" style="fill:#a6c0a1"/><rect x="240.63" y="88.42" width="5.57" height="18.46" style="fill:#a6c0a1"/><rect x="249.77" y="88.42" width="5.57" height="18.46" style="fill:#a6c0a1"/><rect x="258.92" y="88.42" width="5.57" height="18.46" style="fill:#a6c0a1"/><rect x="268.06" y="88.42" width="5.57" height="18.46" style="fill:#a6c0a1"/><rect x="277.21" y="88.42" width="5.57" height="18.46" style="fill:#a6c0a1"/><rect x="154.08" y="96.77" width="136.17" height="3.51" style="fill:#5c9d95"/><rect x="153.87" width="101.92" height="155.96" style="fill:#fff"/><path d="M159.43,140.37l41-.35.14-21.94,9.39-.08-.14,21.94,41.61-.35L251.41,4l-92,.77Zm74.72-125.3,9.39-.08-.09,13.69-9.38.08ZM234,41.43l9.38-.08L243.28,55l-9.38.08Zm-.17,26.37,9.38-.08-.09,13.69-9.38.07Zm-.17,26.36,9.38-.08-.09,13.69-9.38.08Zm-.16,23.64,9.39-.08-.09,13.69-9.38.08ZM217.67,15.21l9.39-.08L227,28.82l-9.38.08Zm-.17,26.36,9.39-.08-.09,13.69-9.38.08Zm-.17,26.36,9.39-.07-.09,13.68-9.38.08Zm-.17,26.37,9.39-.08-.09,13.69-9.38.08ZM217,117.94l9.39-.08-.09,13.69-9.38.07ZM201.19,15.35l9.39-.08L210.49,29,201.1,29ZM201,41.71l9.39-.08-.09,13.69-9.39.08Zm-.17,26.36,9.39-.08-.09,13.69-9.38.08Zm-.17,26.37,9.39-.08L210,108.05l-9.38.07Zm-16-79,9.39-.07L194,29.09l-9.39.08Zm-.17,26.37,9.39-.08-.09,13.69-9.39.08Zm-.17,26.36,9.39-.08-.09,13.69-9.39.08Zm-.17,26.36,9.39-.08-.09,13.69-9.39.08Zm-.15,23.64,9.39-.08-.09,13.69-9.39.08ZM168.23,15.62l9.38-.07-.09,13.68-9.38.08ZM168.06,42l9.38-.08-.08,13.69-9.39.07Zm-.17,26.36,9.38-.08L177.19,82,167.8,82Zm-.17,26.36,9.39-.08L177,108.32l-9.39.08Zm-.15,23.64,9.38-.08L176.87,132l-9.39.08Z" style="fill:#6dc9c9"/><polygon points="89.23 164.57 89.23 163.08 79.13 163.08 79.13 159.45 30.16 159.45 30.16 88.14 35.97 88.14 48.58 67.42 79.13 67.42 79.13 37.2 145.86 37.2 145.86 67.42 176.81 67.42 189.42 88.14 194.44 88.14 194.44 160.02 145.86 160.02 145.86 163.08 135.76 163.08 135.76 164.57 89.23 164.57" style="fill:#fff"/><polygon points="82.3 70.24 50.01 70.24 37.13 91.41 82.3 91.41 82.3 70.24" style="fill:#f99f1c"/><polygon points="143.1 70.24 175.38 70.24 188.26 91.41 143.1 91.41 143.1 70.24" style="fill:#f99f1c"/><rect x="32.8" y="90.96" width="48.9" height="66.77" style="fill:#92c3bc"/><rect x="32.8" y="156.93" width="48.9" height="6.58" style="fill:#7aa49f"/><rect x="32.8" y="90.96" width="48.9" height="2.67" style="fill:#a3d9d1"/><rect x="142.91" y="90.96" width="48.9" height="66.77" transform="translate(334.71 248.69) rotate(-180)" style="fill:#92c3bc"/><rect x="142.91" y="156.93" width="48.9" height="7.23" transform="translate(334.71 321.08) rotate(-180)" style="fill:#b3d894"/><rect x="142.91" y="90.96" width="48.9" height="2.67" transform="translate(334.71 184.59) rotate(-180)" style="fill:#a3d9d1"/><rect x="81.77" y="42.58" width="61.45" height="123.32" style="fill:#97cac2"/><rect x="81.77" y="40.02" width="61.45" height="2.56" style="fill:#a3d9d1"/><rect x="86.39" y="108.69" width="4.56" height="10" style="fill:#cbe4b5"/><rect x="91.97" y="108.69" width="4.56" height="10" style="fill:#cbe4b5"/><rect x="86.39" y="120.13" width="4.56" height="10" style="fill:#cbe4b5"/><rect x="91.97" y="120.13" width="4.56" height="10" style="fill:#cbe4b5"/><rect x="100.69" y="108.69" width="4.56" height="10" style="fill:#cbe4b5"/><rect x="106.26" y="108.69" width="4.56" height="10" style="fill:#cbe4b5"/><rect x="100.69" y="120.13" width="4.56" height="10" style="fill:#cbe4b5"/><rect x="106.26" y="120.13" width="4.56" height="10" style="fill:#cbe4b5"/><rect x="114.99" y="108.69" width="4.56" height="10" style="fill:#cbe4b5"/><rect x="120.56" y="108.69" width="4.56" height="10" style="fill:#cbe4b5"/><rect x="114.99" y="120.13" width="4.56" height="10" style="fill:#cbe4b5"/><rect x="120.56" y="120.13" width="4.56" height="10" style="fill:#cbe4b5"/><rect x="129.28" y="108.69" width="4.56" height="10" style="fill:#cbe4b5"/><rect x="134.86" y="108.69" width="4.56" height="10" style="fill:#cbe4b5"/><rect x="129.28" y="120.13" width="4.56" height="10" style="fill:#cbe4b5"/><rect x="134.86" y="120.13" width="4.56" height="10" style="fill:#cbe4b5"/><rect x="86.39" y="73.54" width="4.56" height="10" style="fill:#cbe4b5"/><rect x="91.97" y="73.54" width="4.56" height="10" style="fill:#cbe4b5"/><rect x="86.39" y="84.97" width="4.56" height="10" style="fill:#cbe4b5"/><rect x="91.97" y="84.97" width="4.56" height="10" style="fill:#cbe4b5"/><rect x="100.69" y="73.54" width="4.56" height="10" style="fill:#cbe4b5"/><rect x="106.26" y="73.54" width="4.56" height="10" style="fill:#cbe4b5"/><rect x="100.69" y="84.97" width="4.56" height="10" style="fill:#cbe4b5"/><rect x="106.26" y="84.97" width="4.56" height="10" style="fill:#cbe4b5"/><rect x="114.99" y="73.54" width="4.56" height="10" style="fill:#cbe4b5"/><rect x="120.56" y="73.54" width="4.56" height="10" style="fill:#cbe4b5"/><rect x="114.99" y="84.97" width="4.56" height="10" style="fill:#cbe4b5"/><rect x="120.56" y="84.97" width="4.56" height="10" style="fill:#cbe4b5"/><rect x="129.28" y="73.54" width="4.56" height="10" style="fill:#cbe4b5"/><rect x="134.86" y="73.54" width="4.56" height="10" style="fill:#cbe4b5"/><rect x="129.28" y="84.97" width="4.56" height="10" style="fill:#cbe4b5"/><rect x="134.86" y="84.97" width="4.56" height="10" style="fill:#cbe4b5"/><rect x="38.63" y="106.15" width="4.56" height="12.05" style="fill:#c9e3b2"/><rect x="44.21" y="106.15" width="4.56" height="12.05" style="fill:#c9e3b2"/><rect x="38.63" y="123.37" width="4.56" height="12.05" style="fill:#c9e3b2"/><rect x="44.21" y="123.37" width="4.56" height="12.05" style="fill:#c9e3b2"/><rect x="52.93" y="106.15" width="4.56" height="12.05" style="fill:#c9e3b2"/><rect x="58.5" y="106.15" width="4.56" height="12.05" style="fill:#c9e3b2"/><rect x="52.93" y="123.37" width="4.56" height="12.05" style="fill:#c9e3b2"/><rect x="58.5" y="123.37" width="4.56" height="12.05" style="fill:#c9e3b2"/><rect x="67.22" y="106.15" width="4.56" height="12.05" style="fill:#c9e3b2"/><rect x="72.8" y="106.15" width="4.56" height="12.05" style="fill:#c9e3b2"/><rect x="67.22" y="123.37" width="4.56" height="12.05" style="fill:#c9e3b2"/><rect x="72.8" y="123.37" width="4.56" height="12.05" style="fill:#c9e3b2"/><rect x="181.41" y="106.15" width="4.56" height="12.05" transform="translate(367.39 224.34) rotate(-180)" style="fill:#c9e3b2"/><rect x="175.84" y="106.15" width="4.56" height="12.05" transform="translate(356.24 224.34) rotate(-180)" style="fill:#c9e3b2"/><rect x="181.41" y="123.37" width="4.56" height="12.05" transform="translate(367.39 258.78) rotate(-180)" style="fill:#c9e3b2"/><rect x="175.84" y="123.37" width="4.56" height="12.05" transform="translate(356.24 258.78) rotate(-180)" style="fill:#c9e3b2"/><rect x="167.12" y="106.15" width="4.56" height="12.05" transform="translate(338.79 224.34) rotate(-180)" style="fill:#c9e3b2"/><rect x="161.54" y="106.15" width="4.56" height="12.05" transform="translate(327.64 224.34) rotate(-180)" style="fill:#c9e3b2"/><rect x="167.12" y="123.37" width="4.56" height="12.05" transform="translate(338.79 258.78) rotate(-180)" style="fill:#c9e3b2"/><rect x="161.54" y="123.37" width="4.56" height="12.05" transform="translate(327.64 258.78) rotate(-180)" style="fill:#c9e3b2"/><rect x="152.82" y="106.15" width="4.56" height="12.05" transform="translate(310.2 224.34) rotate(-180)" style="fill:#c9e3b2"/><rect x="147.24" y="106.15" width="4.56" height="12.05" transform="translate(299.04 224.34) rotate(-180)" style="fill:#c9e3b2"/><rect x="152.82" y="123.37" width="4.56" height="12.05" transform="translate(310.2 258.78) rotate(-180)" style="fill:#c9e3b2"/><rect x="147.24" y="123.37" width="4.56" height="12.05" transform="translate(299.04 258.78) rotate(-180)" style="fill:#c9e3b2"/><rect x="38.63" y="139.26" width="4.56" height="12.05" style="fill:#c9e3b2"/><rect x="44.21" y="139.26" width="4.56" height="12.05" style="fill:#c9e3b2"/><rect x="52.93" y="139.26" width="4.56" height="12.05" style="fill:#c9e3b2"/><rect x="58.5" y="139.26" width="4.56" height="12.05" style="fill:#c9e3b2"/><rect x="67.22" y="139.26" width="4.56" height="12.05" style="fill:#c9e3b2"/><rect x="72.8" y="139.26" width="4.56" height="12.05" style="fill:#c9e3b2"/><rect x="181.41" y="139.26" width="4.56" height="12.05" transform="translate(367.39 290.56) rotate(-180)" style="fill:#c9e3b2"/><rect x="175.84" y="139.26" width="4.56" height="12.05" transform="translate(356.24 290.56) rotate(-180)" style="fill:#c9e3b2"/><rect x="167.12" y="139.26" width="4.56" height="12.05" transform="translate(338.79 290.56) rotate(-180)" style="fill:#c9e3b2"/><rect x="161.54" y="139.26" width="4.56" height="12.05" transform="translate(327.64 290.56) rotate(-180)" style="fill:#c9e3b2"/><rect x="152.82" y="139.26" width="4.56" height="12.05" transform="translate(310.2 290.56) rotate(-180)" style="fill:#c9e3b2"/><rect x="147.24" y="139.26" width="4.56" height="12.05" transform="translate(299.04 290.56) rotate(-180)" style="fill:#c9e3b2"/><ellipse cx="111.94" cy="55.66" rx="8.21" ry="9.81" style="fill:#e6f2dc"/><polygon points="117.69 53.45 114 53.45 114 49.04 110.3 49.04 110.3 53.45 106.6 53.45 106.6 57.86 110.3 57.86 110.3 62.28 114 62.28 114 57.86 117.69 57.86 117.69 53.45" style="fill:#f99f1c"/><rect x="98.5" y="136.42" width="27.99" height="18.16" style="fill:#7aa49f"/><rect x="94.85" y="154.08" width="35.29" height="4.36" style="fill:#7aa49f"/><rect x="91.87" y="157.81" width="41.24" height="9.59" style="fill:#7aa49f"/><rect x="86.18" y="163.06" width="52.64" height="4.34" style="fill:#7aa49f"/><rect x="99.61" y="137.98" width="5.29" height="15.6" style="fill:#cbe4b5"/><rect x="106.31" y="137.98" width="5.29" height="15.6" style="fill:#cbe4b5"/><rect x="113" y="137.98" width="5.29" height="15.6" style="fill:#93ca68"/><rect x="119.7" y="137.98" width="5.29" height="15.6" style="fill:#93ca68"/><path d="M90.82,182.62c-1.9-3.42-4.71-8.68-5.23-10.48l0-.06v-.25a2.43,2.43,0,0,0-1-1.83,3.73,3.73,0,0,0,1.26-3.08,3.66,3.66,0,0,0-1.2-2.41,4,4,0,0,0-3-1,3.89,3.89,0,0,0-3.53,3.2,3.77,3.77,0,0,0,0,.89,3.71,3.71,0,0,0,.71,1.85,2.53,2.53,0,0,0-1.58,1.48.9.9,0,0,0-.14.2l-4,9.1-.2,3.77-.15,3a1.08,1.08,0,0,0,1,1.11h.15a1.09,1.09,0,0,0,1-1l.13-2.61.2-3.73L77,177.19a24.71,24.71,0,0,1-.56,3.94,25.18,25.18,0,0,0-.49,3.72,7.08,7.08,0,0,0,.68.32,1.7,1.7,0,0,0,0,.39,48.32,48.32,0,0,0,2.12,8.4,24.88,24.88,0,0,1-1.63,2,1.82,1.82,0,0,0,.15,2.63,2,2,0,0,0,2.72-.16l.18-.2c1,3,1.92,5.36,2.14,5.94a1.92,1.92,0,0,0,2,1.21,2.33,2.33,0,0,0,.51-.11,1.86,1.86,0,0,0,1.15-2.39c-.68-1.82-1.76-5.26-2.73-8.71a10.07,10.07,0,0,0,1.64-4.47s.06-2.08.11-4.11c.31-.09.62-.17.92-.29.11-1.54.09-3.74,0-6.49,1.11,2,2.29,4,3.1,5.38l1,1.67a1.15,1.15,0,0,0,1.11.58,1.08,1.08,0,0,0,.48-.15A1.16,1.16,0,0,0,92,184.7C91.68,184.17,91.28,183.45,90.82,182.62Z" style="fill:none;stroke:#fff;stroke-linecap:round;stroke-linejoin:round;stroke-width:3.15764093399048px"/><path d="M78.71,199.05a2,2,0,0,1-1.44-.46,1.82,1.82,0,0,1-.15-2.63h0c1.57-1.71,3.81-4.82,3.86-6.37.1-2.69.21-7,.16-7.56a1.9,1.9,0,0,1,1.76-2h0a1.9,1.9,0,0,1,2.07,1.7c.09,1.07-.14,7.92-.14,8-.12,3.42-4.06,7.87-4.85,8.73A2,2,0,0,1,78.71,199.05Z" style="fill:#00b7f1"/><path d="M84.27,205.38a1.92,1.92,0,0,1-2-1.21c-.55-1.45-5.31-14.25-5.68-18.61a1.88,1.88,0,0,1,1.76-2c1.06-.1,2.61.38,2.7,1.41.27,3.27,3.41,14.12,4.84,17.92a1.86,1.86,0,0,1-1.15,2.39A2.33,2.33,0,0,1,84.27,205.38Z" style="fill:url(#linear-gradient)"/><path d="M90.82,182.62A6.37,6.37,0,0,0,89,184.19l1,1.67a1.15,1.15,0,0,0,1.11.58,1.08,1.08,0,0,0,.48-.15A1.16,1.16,0,0,0,92,184.7C91.68,184.17,91.28,183.45,90.82,182.62Z" style="fill:#e4a8b9"/><path d="M90.82,182.62c-1.9-3.42-4.71-8.68-5.23-10.48a1.18,1.18,0,0,0-1.45-.8c-.63.18-1.32.93-1.14,1.55.65,2.25,4.2,8.34,6,11.3A6.37,6.37,0,0,1,90.82,182.62Z" style="fill:#007dac"/><path d="M85.54,171.83c-.09-1.9-2.16-2.79-4.14-2.79s-4.59.46-4.37,3a32.63,32.63,0,0,1-.58,9.06,25.18,25.18,0,0,0-.49,3.72,12.38,12.38,0,0,0,9.91.45C86.06,182.62,85.86,178,85.54,171.83Z" style="fill:#008fc5"/><path d="M81.6,163.49a3.89,3.89,0,0,0-3.53,3.2c2.22-.61,4.39-1.37,6.54-2.18A4,4,0,0,0,81.6,163.49Z" style="fill:#8c702b"/><path d="M78.07,166.69a3.77,3.77,0,0,0,0,.89,3.91,3.91,0,0,0,7.78-.66,3.66,3.66,0,0,0-1.2-2.41C82.46,165.32,80.29,166.08,78.07,166.69Z" style="fill:#e4a8b9"/><path d="M72.62,186.93a1.08,1.08,0,0,0,1,1.11h.15a1.09,1.09,0,0,0,1-1l.13-2.61a4.63,4.63,0,0,0-2.18-.43Z" style="fill:#e4a8b9"/><path d="M79.69,172.16c.24-.55-.66-1.39-1.22-1.61a1.11,1.11,0,0,0-1.45.56l-4,9.1-.2,3.77a4.63,4.63,0,0,1,2.18.43l.2-3.73Z" style="fill:#0098d1"/><path d="M264.29,201.63a1.45,1.45,0,0,0,.8,1.88,1.49,1.49,0,0,0,.54.11,1.46,1.46,0,0,0,1.35-.91c0-.07,0-.15.08-.22,0,.12,0,.26,0,.37a3.46,3.46,0,0,0,.06.49c-.8,5.2-2,17.07-2.07,17.6a2,2,0,0,0,1.81,2.23h.21a2,2,0,0,0,2-1.82c0-.11,1.35-7.88,2.32-13.57a75.68,75.68,0,0,1,.9,10.79,2,2,0,1,0,4.06,0,89.54,89.54,0,0,0-1-12.45,3.87,3.87,0,0,0,.85-3.62,2,2,0,0,0,.59.1,1.62,1.62,0,0,0,1.73-1.5,1,1,0,0,0,0-.24h0s-.16-2.32-.35-4.79c-.14-1.86-.29-3.8-.38-4.89a9.2,9.2,0,0,0-1.37-3.88h0s.1-7.3-1-8.82c-.88-1.2-2-2.59-4.25-1.92a3.72,3.72,0,0,0-2,1h0a3.78,3.78,0,0,0,2.52,6.52,4.71,4.71,0,0,1,0,.71,4.63,4.63,0,0,0-2,1,1.11,1.11,0,0,0-.34.18,7.63,7.63,0,0,0-2.69,5.17,40.89,40.89,0,0,1-.91,5.8A31,31,0,0,1,264.29,201.63Zm10.85-7.81c0-.19.07-.36.11-.53.09,1.25.21,2.75.31,4.1.07,1,.14,1.91.19,2.58a1.52,1.52,0,0,0-.34.33A12.85,12.85,0,0,1,275.14,193.82Z" style="fill:none;stroke:#fff;stroke-linecap:round;stroke-linejoin:round;stroke-width:3.15764093399048px"/><path d="M275.1,191.43a8.1,8.1,0,0,0-1.86-3.93,1.36,1.36,0,1,1,2-1.82,10.77,10.77,0,0,1,2.55,5.52c.09,1.09.24,3,.38,4.89a26.79,26.79,0,0,0-2.63,1.3C275.4,195.25,275.21,192.73,275.1,191.43Z" style="fill:#6bb0cf"/><path d="M278.19,196.09c.19,2.47.35,4.79.35,4.79l-2.71.2s-.12-1.68-.27-3.69A26.79,26.79,0,0,1,278.19,196.09Z" style="fill:#bd8b82"/><path d="M275.12,201.12a1.74,1.74,0,1,0,1.72-1.49A1.62,1.62,0,0,0,275.12,201.12Z" style="fill:#bd8b82"/><path d="M274.62,201.38c0,.21,0,.34,0,.41a3.46,3.46,0,0,1-1.94,4.21,3.38,3.38,0,0,1-1.37.29c-1.35,0-3.42-.78-4-2.09a4.37,4.37,0,0,1-.28-1.34C269.67,202.44,272.19,202,274.62,201.38Z" style="fill:#d74351"/><path d="M267.09,223.19a2,2,0,0,0,2-1.82c0-.14,2.33-13.59,3.09-18.05.19-1.11-1.47-2.3-2.58-2.49a2,2,0,0,0-2.34,1.66c-.78,4.59-2.14,17.9-2.2,18.46a2,2,0,0,0,1.81,2.23Z" style="fill:url(#linear-gradient-2)"/><path d="M274.35,220.62a2,2,0,0,0,2-2,90.64,90.64,0,0,0-1.26-14.22,2,2,0,0,0-2.36-1.63c-1.1.19-2.07.78-1.87,1.88a83.1,83.1,0,0,1,1.43,14A2,2,0,0,0,274.35,220.62Z" style="fill:#00b3f0"/><path d="M268,180.33a3.8,3.8,0,1,0,3.8-3.8A3.8,3.8,0,0,0,268,180.33Z" style="fill:#cd9199"/><path d="M267.14,203.51a4.64,4.64,0,1,0,4.63-4.3A4.48,4.48,0,0,0,267.14,203.51Z" style="fill:url(#linear-gradient-3)"/><path d="M267.82,192.61a29.85,29.85,0,0,1,1-4.66,1.75,1.75,0,0,1-.05-.33c0-1.55,2.07-2.92,3.87-2.92a3.07,3.07,0,0,1,3.27,2.81,2.54,2.54,0,0,1-.11.67,22.07,22.07,0,0,1-.63,5.64c-.88,4.05.47,6.69.51,7.51-2.43.58-6,1.11-8.57,1.53C266.93,201.06,267.2,197.89,267.82,192.61Z" style="fill:url(#linear-gradient-4)"/><path d="M266.65,191.21a7.63,7.63,0,0,1,2.69-5.17,1.45,1.45,0,0,1,1.75,2.3,4.75,4.75,0,0,0-1.56,3.11,43.83,43.83,0,0,1-1.06,6.61,11.36,11.36,0,0,1-2.73-1.05A40.89,40.89,0,0,0,266.65,191.21Z" style="fill:#7dcef1"/><path d="M265.74,197a11.36,11.36,0,0,0,2.73,1.05,35.22,35.22,0,0,1-1.49,4.65,1.46,1.46,0,0,1-1.35.91,1.49,1.49,0,0,1-.54-.11,1.45,1.45,0,0,1-.8-1.88A31,31,0,0,0,265.74,197Z" style="fill:#e0a398"/><path d="M269.16,177.59a19.44,19.44,0,0,0,1.72,4.16,5.18,5.18,0,0,1,.81,3.14l1.65.69,3.12,1.75s-.09-7.18-1-8.82A4,4,0,0,0,269.16,177.59Z" style="fill:#816673"/><polygon points="172.03 206.69 172.03 205.79 164.4 205.79 164.4 203.51 110.71 203.51 110.71 152.43 106.33 152.43 120.22 122.01 172.56 122.01 172.42 120.26 169.65 120.26 172.08 116.16 174.37 112.3 184.4 95.46 190.69 95.46 200.72 112.3 202.81 112.3 203.6 122.01 254.34 122.01 268.23 152.43 261.47 152.43 261.47 203.51 211.26 203.51 211.26 205.79 200.66 205.79 200.66 206.69 172.03 206.69" style="fill:#fff"/><polygon points="200.74 125.72 176.03 125.72 175.19 115.46 199.9 115.46 200.74 125.72" style="fill:#c8ac9f"/><rect x="113.87" y="146.67" width="144.44" height="53.69" style="fill:#c8ac9f"/><polygon points="263.32 149.27 111.25 149.27 122.25 125.17 252.31 125.17 263.32 149.27" style="fill:#5c9d95"/><rect x="211.34" y="156.14" width="8.46" height="15.61" style="fill:#e7eff2"/><rect x="227.75" y="156.14" width="8.46" height="15.61" style="fill:#e7eff2"/><rect x="244.18" y="156.14" width="8.46" height="15.61" style="fill:#e7eff2"/><rect x="211.34" y="179.85" width="8.46" height="15.61" style="fill:#e7eff2"/><rect x="227.75" y="179.85" width="8.46" height="15.61" style="fill:#e7eff2"/><rect x="244.18" y="179.85" width="8.46" height="15.61" style="fill:#e7eff2"/><rect x="120.53" y="156.14" width="8.46" height="15.61" style="fill:#e7eff2"/><rect x="136.94" y="156.14" width="8.46" height="15.61" style="fill:#e7eff2"/><rect x="153.37" y="156.14" width="8.45" height="15.61" style="fill:#e7eff2"/><rect x="120.53" y="179.85" width="8.46" height="15.61" style="fill:#e7eff2"/><rect x="136.94" y="179.85" width="8.46" height="15.61" style="fill:#e7eff2"/><rect x="153.37" y="179.85" width="8.45" height="15.61" style="fill:#e7eff2"/><polygon points="167.55 202.64 208.1 202.64 208.1 140.54 187.32 123.75 167.55 140.54 167.55 202.64" style="fill:#c8ac9f"/><path d="M196.05,146.47c0,4.48-3.92,8.11-8.73,8.11s-8.74-3.63-8.74-8.11,3.91-8.11,8.74-8.11S196.05,142,196.05,146.47Z" style="fill:#fff"/><rect x="175.18" y="174.03" width="22.32" height="29.5" style="fill:#5c9d95"/><rect x="175.18" y="174.03" width="22.32" height="1.77" style="fill:#457c76"/><rect x="175.18" y="203.53" width="22.32" height="2.03" style="fill:#c8ac9f"/><rect x="175.18" y="201.62" width="22.32" height="1.91" style="fill:#e7eff2"/><polygon points="199.9 117.1 175.19 117.1 186.2 98.62 188.9 98.62 199.9 117.1" style="fill:#5c9d95"/><rect x="179.04" y="179.62" width="4.64" height="11.12" style="fill:#e7eff2"/><rect x="187.85" y="179.62" width="4.64" height="11.12" style="fill:#e7eff2"/></g></g></svg>